0
SECTION
2
HEADER
9
$INSUNITS
70
4
9
$ACADVER
1
AC1014
9
$HANDSEED
5
FFFF
0
ENDSEC
0
SECTION
2
TABLES
0
TABLE
2
VPORT
5
8
100
AcDbSymbolTable
0
ENDTAB
0
TABLE
2
LTYPE
5
5
100
AcDbSymbolTable
0
LTYPE
5
14
100
AcDbSymbolTableRecord
100
AcDbLinetypeTableRecord
2
BYBLOCK
70
0
0
LTYPE
5
15
100
AcDbSymbolTableRecord
100
AcDbLinetypeTableRecord
2
BYLAYER
70
0
0
ENDTAB
0
TABLE
2
LAYER
5
2
100
AcDbSymbolTable
70
2
0
LAYER
5
50
100
AcDbSymbolTableRecord
100
AcDbLayerTableRecord
2
0
70
0
6
CONTINUOUS
0
ENDTAB
0
TABLE
2
STYLE
5
3
100
AcDbSymbolTable
70
1
0
STYLE
5
11
100
AcDbSymbolTableRecord
100
AcDbTextStyleTableRecord
2
STANDARD
70
0
0
ENDTAB
0
TABLE
2
VIEW
5
6
100
AcDbSymbolTable
70
0
0
ENDTAB
0
TABLE
2
UCS
5
7
100
AcDbSymbolTable
70
0
0
ENDTAB
0
TABLE
2
APPID
5
9
100
AcDbSymbolTable
70
2
0
APPID
5
12
100
AcDbSymbolTableRecord
100
AcDbRegAppTableRecord
2
ACAD
70
0
0
ENDTAB
0
TABLE
2
DIMSTYLE
5
A
100
AcDbSymbolTable
70
1
0
ENDTAB
0
TABLE
2
BLOCK_RECORD
5
1
100
AcDbSymbolTable
70
1
0
BLOCK_RECORD
5
1F
100
AcDbSymbolTableRecord
100
AcDbBlockTableRecord
2
*MODEL_SPACE
0
BLOCK_RECORD
5
1B
100
AcDbSymbolTableRecord
100
AcDbBlockTableRecord
2
*PAPER_SPACE
0
ENDTAB
0
ENDSEC
0
SECTION
2
BLOCKS
0
BLOCK
5
20
100
AcDbEntity
100
AcDbBlockBegin
2
*MODEL_SPACE
0
ENDBLK
5
21
100
AcDbEntity
100
AcDbBlockEnd
0
BLOCK
5
1C
100
AcDbEntity
100
AcDbBlockBegin
2
*PAPER_SPACE
0
ENDBLK
5
1D
100
AcDbEntity
100
AcDbBlockEnd
0
ENDSEC
0
SECTION
2
ENTITIES
0
ARC
5
100
100
AcDbEntity
8
0
100
AcDbCircle
10
0
20
0
30
0
40
30.500000000000995
210
-0
220
0
230
1
100
AcDbArc
50
-60.595844245544676
51
240.59584424554458
0
ARC
5
101
100
AcDbEntity
8
0
100
AcDbCircle
10
-14.027937953836203
20
-24.891357663518718
30
0
40
1.9279379538362005
210
0
220
0
230
1
100
AcDbArc
50
-119.40415575445573
51
0
0
LINE
5
102
100
AcDbEntity
8
0
100
AcDbLine
10
-12.099999999999998
20
-24.891357663518718
30
0
11
-12.1
21
-15.235300600594579
31
0
0
ARC
5
103
100
AcDbEntity
8
0
100
AcDbCircle
10
-8.8513507497245207
20
-15.235300600594579
30
0
40
3.2486492502754793
210
0
220
-0
230
1
100
AcDbArc
50
89.999999999999972
51
180
0
LINE
5
104
100
AcDbEntity
8
0
100
AcDbLine
10
-6.9999999999999885
20
-11.9866513503191
30
0
11
-8.851350749724519
21
-11.9866513503191
31
0
0
ARC
5
105
100
AcDbEntity
8
0
100
AcDbCircle
10
1.3315918555172982e-14
20
-14.34236832591419
30
0
40
7.3857567296186293
210
0
220
-0
230
1
100
AcDbArc
50
18.599681684587988
51
161.40031831541202
0
ARC
5
106
100
AcDbEntity
8
0
100
AcDbCircle
10
8.8513507497245349
20
-15.235300600594579
30
0
40
3.2486492502754793
210
0
220
-0
230
1
100
AcDbArc
50
0
51
90.000000000000256
0
LINE
5
107
100
AcDbEntity
8
0
100
AcDbLine
10
7.0000000000000151
20
-11.986651350319102
30
0
11
8.8513507497245207
21
-11.9866513503191
31
0
0
LINE
5
108
100
AcDbEntity
8
0
100
AcDbLine
10
12.1
20
-24.891357663518718
30
0
11
12.100000000000016
21
-15.235300600594579
31
0
0
ARC
5
109
100
AcDbEntity
8
0
100
AcDbCircle
10
14.027937953836203
20
-24.891357663518718
30
0
40
1.9279379538362029
210
0
220
0
230
1
100
AcDbArc
50
180
51
299.4041557544553
0
CIRCLE
5
110
100
AcDbEntity
8
0
100
AcDbCircle
10
15
20
-9.1965891944492526
30
0
40
1.3999999999999999
210
0
220
-0
230
1
0
CIRCLE
5
111
100
AcDbEntity
8
0
100
AcDbCircle
10
-15
20
-9.1965891944492526
30
0
40
1.3999999999999999
210
0
220
-0
230
1
0
ARC
5
112
100
AcDbEntity
8
0
100
AcDbCircle
10
0.50076768460935783
20
-16.199213002670621
30
0
40
35.95857411844981
210
0
220
-0
230
1
100
AcDbArc
50
45.013807569293192
51
134.98619243070681
0
ARC
5
113
100
AcDbEntity
8
0
100
AcDbCircle
10
0.50076768460935783
20
-16.199213002670621
30
0
40
33.208574118449803
210
0
220
-0
230
1
100
AcDbArc
50
45.013807569293199
51
134.98619243070681
0
LINE
5
114
100
AcDbEntity
8
0
100
AcDbLine
10
-24.919655695811347
20
9.2334653421716446
30
0
11
-21.638747809818963
21
5.9375604149778063
31
0
0
LINE
5
115
100
AcDbEntity
8
0
100
AcDbLine
10
-21.389425280845245
20
12.328641886318319
30
0
11
-18.923631071964433
21
9.1151563090978662
31
0
0
LINE
5
116
100
AcDbEntity
8
0
100
AcDbLine
10
-17.478519374595379
20
14.941825667784176
30
0
11
-15.453264413145016
21
11.433981176265961
31
0
0
LINE
5
117
100
AcDbEntity
8
0
100
AcDbLine
10
-13.259982881995512
20
17.022177643654405
30
0
11
-11.480309782449956
21
12.725666710141697
31
0
0
LINE
5
118
100
AcDbEntity
8
0
100
AcDbLine
10
-8.8059961320068307
20
18.534102414861458
30
0
11
-7.7576470215787374
21
14.621610270688056
31
0
0
LINE
5
119
100
AcDbEntity
8
0
100
AcDbLine
10
-4.1927680725660892
20
19.451730529417894
30
0
11
-3.6640704357986884
21
15.435873280407343
31
0
0
LINE
5
120
100
AcDbEntity
8
0
100
AcDbLine
10
0.50076768460935805
20
19.759361115779186
30
0
11
0.50076768460935805
21
15.108851192873923
31
0
0
LINE
5
121
100
AcDbEntity
8
0
100
AcDbLine
10
5.194303441784804
20
19.451730529417894
30
0
11
4.6656058050174041
21
15.435873280407348
31
0
0
LINE
5
122
100
AcDbEntity
8
0
100
AcDbLine
10
9.8075315012255491
20
18.534102414861458
30
0
11
8.759182390797454
21
14.62161027068805
31
0
0
LINE
5
123
100
AcDbEntity
8
0
100
AcDbLine
10
14.261518251214209
20
17.022177643654409
30
0
11
12.481845151668658
21
12.725666710141706
31
0
0
LINE
5
124
100
AcDbEntity
8
0
100
AcDbLine
10
18.480054743814101
20
14.941825667784176
30
0
11
16.45479978236374
21
11.433981176265956
31
0
0
LINE
5
125
100
AcDbEntity
8
0
100
AcDbLine
10
22.39096065006396
20
12.328641886318319
30
0
11
19.925166441183148
21
9.1151563090978645
31
0
0
LINE
5
126
100
AcDbEntity
8
0
100
AcDbLine
10
25.921191065030065
20
9.2334653421716428
30
0
11
22.640283179037674
21
5.9375604149778107
31
0
0
LWPOLYLINE
5
127
100
AcDbEntity
8
0
100
AcDbPolyline
90
4
70
1
43
0.0
10
-2.4232015185630122
20
19.759360629731077
10
3.4247368877816244
20
19.759361601825802
10
3.4247360446489932
20
24.831489056668833
10
-2.4232023616956426
20
24.831488084564882
0
LWPOLYLINE
5
128
100
AcDbEntity
8
0
100
AcDbPolyline
90
4
70
1
43
0.0
10
-22.5690365039226
20
1.5352258219175736
10
-19.527202858228961
20
1.5352258219175721
10
-19.527202858228961
20
5.1891390705913771
10
-22.569036503922604
20
5.1891390705913825
0
LWPOLYLINE
5
129
100
AcDbEntity
8
0
100
AcDbPolyline
90
4
70
1
43
0.0
10
18.2171749950638
20
1.5352258219175767
10
25.882135105525052
20
1.5352258219175794
10
25.882135105525133
20
5.1891390705913825
10
18.217174995063871
20
5.1891390705913825
0
LWPOLYLINE
5
130
100
AcDbEntity
8
0
100
AcDbPolyline
90
4
70
1
43
0.0
10
-15.893723511462971
20
15.931250883628138
10
-10.626242252507849
20
18.113104403679042
10
-12.567254822786884
20
22.799141868333514
10
-17.834736081738843
20
20.617288348283914
0
LWPOLYLINE
5
131
100
AcDbEntity
8
0
100
AcDbPolyline
90
4
70
1
43
0.0
10
11.055098616899354
20
18.3503235960928
10
17.467937885552089
20
15.694031691212372
10
19.408961337021427
20
20.38006464874087
10
12.996122068363167
20
23.03635655360797
0
LINE
5
132
100
AcDbEntity
8
0
100
AcDbLine
10
1.4380113708608133
20
23.060772714894107
30
0
11
1.0717083489469683
21
23.032123383469546
31
0
0
SPLINE
5
133
100
AcDbEntity
8
0
100
AcDbSpline
70
0
71
2
72
6
73
3
74
0
42
0.000000001
43
0.0000000001
44
0.0000000001
40
0
40
0
40
0
40
1
40
1
40
1
10
1.0717083489469688
20
23.032123383469543
30
0
10
1.0225952776871672
20
23.249040174850837
30
0
10
0.93255439879886493
20
23.347266528310744
30
0
0
SPLINE
5
134
100
AcDbEntity
8
0
100
AcDbSpline
70
0
71
2
72
6
73
3
74
0
42
0.000000001
43
0.0000000001
44
0.0000000001
40
0
40
0
40
0
40
1
40
1
40
1
10
0.93255439879886493
20
23.347266528310744
30
0
10
0.78316814547504887
20
23.504838236476367
30
0
10
0.5642051184746244
20
23.504838200078449
30
0
0
SPLINE
5
135
100
AcDbEntity
8
0
100
AcDbSpline
70
0
71
2
72
6
73
3
74
0
42
0.000000001
43
0.0000000001
44
0.0000000001
40
0
40
0
40
0
40
1
40
1
40
1
10
0.5642051184746244
20
23.504838200078449
30
0
10
0.38821584826436106
20
23.504838170823994
30
0
10
0.25520094721873721
20
23.406611780285832
30
0
0
SPLINE
5
136
100
AcDbEntity
8
0
100
AcDbSpline
70
0
71
2
72
6
73
3
74
0
42
0.000000001
43
0.0000000001
44
0.0000000001
40
0
40
0
40
0
40
1
40
1
40
1
10
0.25520094721873721
20
23.406611780285832
30
0
10
0.081258521600469091
20
23.279735814386608
30
0
10
-0.019014331825207287
20
23.036215955093724
30
0
0
SPLINE
5
137
100
AcDbEntity
8
0
100
AcDbSpline
70
0
71
2
72
6
73
3
74
0
42
0.000000001
43
0.0000000001
44
0.0000000001
40
0
40
0
40
0
40
1
40
1
40
1
10
-0.019014331825207287
20
23.036215955093724
30
0
10
-0.11928733426254501
20
22.792696393824031
30
0
10
-0.12338001235911694
20
22.342491484295902
30
0
0
SPLINE
5
138
100
AcDbEntity
8
0
100
AcDbSpline
70
0
71
2
72
6
73
3
74
0
42
0.000000001
43
0.0000000001
44
0.0000000001
40
0
40
0
40
0
40
1
40
1
40
1
10
-0.12338001235911694
20
22.342491484295902
30
0
10
0.009635020349514356
20
22.545083819696448
30
0
10
0.20199498794253146
20
22.643310220099462
30
0
0
SPLINE
5
139
100
AcDbEntity
8
0
100
AcDbSpline
70
0
71
2
72
6
73
3
74
0
42
0.000000001
43
0.0000000001
44
0.0000000001
40
0
40
0
40
0
40
1
40
1
40
1
10
0.20199498794253146
20
22.643310220099462
30
0
10
0.39435525355877243
20
22.741536620502522
30
0
10
0.60513277469219195
20
22.741536655539775
30
0
0
SPLINE
5
140
100
AcDbEntity
8
0
100
AcDbSpline
70
0
71
2
72
6
73
3
74
0
42
0.000000001
43
0.0000000001
44
0.0000000001
40
0
40
0
40
0
40
1
40
1
40
1
10
0.60513277469219195
20
22.741536655539775
30
0
10
0.97348232684672797
20
22.741536716770014
30
0
10
1.2323498145268235
20
22.470390760369586
30
0
0
SPLINE
5
141
100
AcDbEntity
8
0
100
AcDbSpline
70
0
71
2
72
6
73
3
74
0
42
0.000000001
43
0.0000000001
44
0.0000000001
40
0
40
0
40
0
40
1
40
1
40
1
10
1.2323498145268235
20
22.470390760369586
30
0
10
1.4912176002301418
20
22.199244803969201
30
0
10
1.4912176716653602
20
21.769503957812137
30
0
0
SPLINE
5
142
100
AcDbEntity
8
0
100
AcDbSpline
70
0
71
2
72
6
73
3
74
0
42
0.000000001
43
0.0000000001
44
0.0000000001
40
0
40
0
40
0
40
1
40
1
40
1
10
1.4912176716653602
20
21.769503957812137
30
0
10
1.4912177186085063
20
21.487102813307594
30
0
10
1.3694576885944054
20
21.244606362193718
30
0
0
SPLINE
5
143
100
AcDbEntity
8
0
100
AcDbSpline
70
0
71
2
72
6
73
3
74
0
42
0.000000001
43
0.0000000001
44
0.0000000001
40
0
40
0
40
0
40
1
40
1
40
1
10
1.3694576885944054
20
21.244606362193718
30
0
10
1.2476979566035777
20
21.002109613056668
30
0
10
1.0348739314223461
20
20.873187413239066
30
0
0
SPLINE
5
144
100
AcDbEntity
8
0
100
AcDbSpline
70
0
71
2
72
6
73
3
74
0
42
0.000000001
43
0.0000000001
44
0.0000000001
40
0
40
0
40
0
40
1
40
1
40
1
10
1.0348739314223461
20
20.873187413239066
30
0
10
0.82204990624111296
20
20.744265213421468
30
0
10
0.5519273185603002
20
20.744265168519362
30
0
0
SPLINE
5
145
100
AcDbEntity
8
0
100
AcDbSpline
70
0
71
2
72
6
73
3
74
0
42
0.000000001
43
0.0000000001
44
0.0000000001
40
0
40
0
40
0
40
1
40
1
40
1
10
0.5519273185603002
20
20.744265168519362
30
0
10
0.091490676390353909
20
20.744265091981614
30
0
10
-0.19909603027892464
20
21.082941615523801
30
0
0
SPLINE
5
146
100
AcDbEntity
8
0
100
AcDbSpline
70
0
71
2
72
6
73
3
74
0
42
0.000000001
43
0.0000000001
44
0.0000000001
40
0
40
0
40
0
40
1
40
1
40
1
10
-0.19909603027892464
20
21.082941615523801
30
0
10
-0.48968273694825315
20
21.421618437089212
30
0
10
-0.48968286621193846
20
22.199244474686854
30
0
0
SPLINE
5
147
100
AcDbEntity
8
0
100
AcDbSpline
70
0
71
2
72
6
73
3
74
0
42
0.000000001
43
0.0000000001
44
0.0000000001
40
0
40
0
40
0
40
1
40
1
40
1
10
-0.48968286621193846
20
22.199244474686854
30
0
10
-0.48968301078318122
20
23.068957900323134
30
0
10
-0.16840063005112177
20
23.46391025094016
30
0
0
SPLINE
5
148
100
AcDbEntity
8
0
100
AcDbSpline
70
0
71
2
72
6
73
3
74
0
42
0.000000001
43
0.0000000001
44
0.0000000001
40
0
40
0
40
0
40
1
40
1
40
1
10
-0.16840063005112177
20
23.46391025094016
30
0
10
0.11195393182687419
20
23.80770303407342
30
0
10
0.58671535827568955
20
23.807703112992357
30
0
0
SPLINE
5
149
100
AcDbEntity
8
0
100
AcDbSpline
70
0
71
2
72
6
73
3
74
0
42
0.000000001
43
0.0000000001
44
0.0000000001
40
0
40
0
40
0
40
1
40
1
40
1
10
0.58671535827568955
20
23.807703112992357
30
0
10
0.94073982812813206
20
23.807703171841354
30
0
10
1.1668652802642447
20
23.609203947096958
30
0
0
SPLINE
5
150
100
AcDbEntity
8
0
100
AcDbSpline
70
0
71
2
72
6
73
3
74
0
42
0.000000001
43
0.0000000001
44
0.0000000001
40
0
40
0
40
0
40
1
40
1
40
1
10
1.1668652802642447
20
23.609203947096958
30
0
10
1.3929910304235822
20
23.410704722352609
30
0
10
1.4380113708608133
20
23.060772714894107
30
0
0
SPLINE
5
151
100
AcDbEntity
8
0
100
AcDbSpline
70
0
71
2
72
6
73
3
74
0
42
0.000000001
43
0.0000000001
44
0.0000000001
40
0
40
0
40
0
40
1
40
1
40
1
10
-0.066081226691376282
20
21.767457471489351
30
0
10
-0.066081195055787134
20
21.577143715023443
30
0
10
0.014751076824168208
20
21.403200983728176
30
0
0
SPLINE
5
152
100
AcDbEntity
8
0
100
AcDbSpline
70
0
71
2
72
6
73
3
74
0
42
0.000000001
43
0.0000000001
44
0.0000000001
40
0
40
0
40
0
40
1
40
1
40
1
10
0.014751076824168208
20
21.403200983728176
30
0
10
0.09558334870412355
20
21.229258252432906
30
0
10
0.24087654001577197
20
21.138194002273725
30
0
0
SPLINE
5
153
100
AcDbEntity
8
0
100
AcDbSpline
70
0
71
2
72
6
73
3
74
0
42
0.000000001
43
0.0000000001
44
0.0000000001
40
0
40
0
40
0
40
1
40
1
40
1
10
0.24087654001577197
20
21.138194002273725
30
0
10
0.38617002935059486
20
21.047130050137817
30
0
10
0.54578798980362608
20
21.047130076670889
30
0
0
SPLINE
5
154
100
AcDbEntity
8
0
100
AcDbSpline
70
0
71
2
72
6
73
3
74
0
42
0.000000001
43
0.0000000001
44
0.0000000001
40
0
40
0
40
0
40
1
40
1
40
1
10
0.54578798980362608
20
21.047130076670889
30
0
10
0.7790760991061435
20
21.047130115450052
30
0
10
0.94687923610755786
20
21.235397374331288
30
0
0
SPLINE
5
155
100
AcDbEntity
8
0
100
AcDbSpline
70
0
71
2
72
6
73
3
74
0
42
0.000000001
43
0.0000000001
44
0.0000000001
40
0
40
0
40
0
40
1
40
1
40
1
10
0.94687923610755786
20
21.235397374331288
30
0
10
1.1146829691553699
20
21.423664931235848
30
0
10
1.1146829154088485
20
21.746993903098634
30
0
0
SPLINE
5
156
100
AcDbEntity
8
0
100
AcDbSpline
70
0
71
2
72
6
73
3
74
0
42
0.000000001
43
0.0000000001
44
0.0000000001
40
0
40
0
40
0
40
1
40
1
40
1
10
1.1146829154088485
20
21.746993903098634
30
0
10
1.1146828637033745
20
22.058044318137693
30
0
10
0.94892559507381624
20
22.237102901977067
30
0
0
SPLINE
5
157
100
AcDbEntity
8
0
100
AcDbSpline
70
0
71
2
72
6
73
3
74
0
42
0.000000001
43
0.0000000001
44
0.0000000001
40
0
40
0
40
0
40
1
40
1
40
1
10
0.94892559507381624
20
22.237102901977067
30
0
10
0.78316832644425793
20
22.416161485816446
30
0
10
0.53146327597581644
20
22.416161443975859
30
0
0
SPLINE
5
158
100
AcDbEntity
8
0
100
AcDbSpline
70
0
71
2
72
6
73
3
74
0
42
0.000000001
43
0.0000000001
44
0.0000000001
40
0
40
0
40
0
40
1
40
1
40
1
10
0.53146327597581644
20
22.416161443975859
30
0
10
0.28180415493929023
20
22.416161402475367
30
0
10
0.10786143997205178
20
22.237102762168135
30
0
0
SPLINE
5
159
100
AcDbEntity
8
0
100
AcDbSpline
70
0
71
2
72
6
73
3
74
0
42
0.000000001
43
0.0000000001
44
0.0000000001
40
0
40
0
40
0
40
1
40
1
40
1
10
0.10786143997205178
20
22.237102762168135
30
0
10
-0.066081274995187234
20
22.058044121860899
30
0
10
-0.066081226691376282
20
21.767457471489351
30
0
0
SPLINE
5
160
100
AcDbEntity
8
0
100
AcDbSpline
70
0
71
2
72
6
73
3
74
0
42
0.000000001
43
0.0000000001
44
0.0000000001
40
0
40
0
40
0
40
1
40
1
40
1
10
-22.026291472506184
20
3.3417187357754004
30
0
10
-22.026291472506184
20
3.8737787032932536
30
0
10
-21.91680995900597
20
4.1981306398720042
30
0
0
SPLINE
5
161
100
AcDbEntity
8
0
100
AcDbSpline
70
0
71
2
72
6
73
3
74
0
42
0.000000001
43
0.0000000001
44
0.0000000001
40
0
40
0
40
0
40
1
40
1
40
1
10
-21.91680995900597
20
4.1981306398720042
30
0
10
-21.807328296494145
20
4.5224825764507539
30
0
10
-21.591434759688038
20
4.69847184666102
30
0
0
SPLINE
5
162
100
AcDbEntity
8
0
100
AcDbSpline
70
0
71
2
72
6
73
3
74
0
42
0.000000001
43
0.0000000001
44
0.0000000001
40
0
40
0
40
0
40
1
40
1
40
1
10
-21.591434759688038
20
4.69847184666102
30
0
10
-21.375541222881932
20
4.8744608188480623
30
0
10
-21.048119647097248
20
4.8744608188480623
30
0
0
SPLINE
5
163
100
AcDbEntity
8
0
100
AcDbSpline
70
0
71
2
72
6
73
3
74
0
42
0.000000001
43
0.0000000001
44
0.0000000001
40
0
40
0
40
0
40
1
40
1
40
1
10
-21.048119647097248
20
4.8744608188480623
30
0
10
-20.806646180939335
20
4.8744608188480623
30
0
10
-20.624517930340428
20
4.7772575641483552
30
0
0
SPLINE
5
164
100
AcDbEntity
8
0
100
AcDbSpline
70
0
71
2
72
6
73
3
74
0
42
0.000000001
43
0.0000000001
44
0.0000000001
40
0
40
0
40
0
40
1
40
1
40
1
10
-20.624517930340428
20
4.7772575641483552
30
0
10
-20.44238967974152
20
4.6800543094486482
30
0
10
-20.323699397635121
20
4.4969029451221711
30
0
0
SPLINE
5
165
100
AcDbEntity
8
0
100
AcDbSpline
70
0
71
2
72
6
73
3
74
0
42
0.000000001
43
0.0000000001
44
0.0000000001
40
0
40
0
40
0
40
1
40
1
40
1
10
-20.323699397635121
20
4.4969029451221711
30
0
10
-20.205008966517109
20
4.3137515807956941
30
0
10
-20.137478394102711
20
4.0507909382194764
30
0
0
SPLINE
5
166
100
AcDbEntity
8
0
100
AcDbSpline
70
0
71
2
72
6
73
3
74
0
42
0.000000001
43
0.0000000001
44
0.0000000001
40
0
40
0
40
0
40
1
40
1
40
1
10
-20.137478394102711
20
4.0507909382194764
30
0
10
-20.069947523665089
20
3.7878305936664827
30
0
10
-20.069947523665089
20
3.3417187357753999
30
0
0
SPLINE
5
167
100
AcDbEntity
8
0
100
AcDbSpline
70
0
71
2
72
6
73
3
74
0
42
0.000000001
43
0.0000000001
44
0.0000000001
40
0
40
0
40
0
40
1
40
1
40
1
10
-20.069947523665089
20
3.3417187357753999
30
0
10
-20.069947523665089
20
2.8137512231678254
30
0
10
-20.178405923437733
20
2.4893994356006868
30
0
0
SPLINE
5
168
100
AcDbEntity
8
0
100
AcDbSpline
70
0
71
2
72
6
73
3
74
0
42
0.000000001
43
0.0000000001
44
0.0000000001
40
0
40
0
40
0
40
1
40
1
40
1
10
-20.178405923437733
20
2.4893994356006868
30
0
10
-20.286864472221989
20
2.1650473500103242
30
0
10
-20.502758009028096
20
1.9880349660724883
30
0
0
SPLINE
5
169
100
AcDbEntity
8
0
100
AcDbSpline
70
0
71
2
72
6
73
3
74
0
42
0.000000001
43
0.0000000001
44
0.0000000001
40
0
40
0
40
0
40
1
40
1
40
1
10
-20.502758009028096
20
1.9880349660724883
30
0
10
-20.718651545834202
20
1.8110228801578765
30
0
10
-21.048119647097248
20
1.8110228801578772
30
0
0
SPLINE
5
170
100
AcDbEntity
8
0
100
AcDbSpline
70
0
71
2
72
6
73
3
74
0
42
0.000000001
43
0.0000000001
44
0.0000000001
40
0
40
0
40
0
40
1
40
1
40
1
10
-21.048119647097248
20
1.8110228801578772
30
0
10
-21.481953246187825
20
1.8110228801578772
30
0
10
-21.729565692734379
20
2.1220732951969397
30
0
0
SPLINE
5
171
100
AcDbEntity
8
0
100
AcDbSpline
70
0
71
2
72
6
73
3
74
0
42
0.000000001
43
0.0000000001
44
0.0000000001
40
0
40
0
40
0
40
1
40
1
40
1
10
-21.729565692734379
20
2.1220732951969397
30
0
10
-22.026291472506184
20
2.4965615297168982
30
0
10
-22.026291472506184
20
3.3417187357754004
30
0
0
SPLINE
5
172
100
AcDbEntity
8
0
100
AcDbSpline
70
0
71
2
72
6
73
3
74
0
42
0.000000001
43
0.0000000001
44
0.0000000001
40
0
40
0
40
0
40
1
40
1
40
1
10
-21.647710336041111
20
3.3417187357754004
30
0
10
-21.647710336041111
20
2.602973702034403
30
0
10
-21.47479085404839
20
2.3584307456821691
30
0
0
SPLINE
5
173
100
AcDbEntity
8
0
100
AcDbSpline
70
0
71
2
72
6
73
3
74
0
42
0.000000001
43
0.0000000001
44
0.0000000001
40
0
40
0
40
0
40
1
40
1
40
1
10
-21.47479085404839
20
2.3584307456821691
30
0
10
-21.301871372055668
20
2.1138877893299353
30
0
10
-21.048119647097248
20
2.1138877893299353
30
0
0
SPLINE
5
174
100
AcDbEntity
8
0
100
AcDbSpline
70
0
71
2
72
6
73
3
74
0
42
0.000000001
43
0.0000000001
44
0.0000000001
40
0
40
0
40
0
40
1
40
1
40
1
10
-21.048119647097248
20
2.1138877893299353
30
0
10
-20.794367922138829
20
2.1138877893299348
30
0
10
-20.621448291134495
20
2.3594538594097383
30
0
0
SPLINE
5
175
100
AcDbEntity
8
0
100
AcDbSpline
70
0
71
2
72
6
73
3
74
0
42
0.000000001
43
0.0000000001
44
0.0000000001
40
0
40
0
40
0
40
1
40
1
40
1
10
-20.621448291134495
20
2.3594538594097383
30
0
10
-20.448528809141774
20
2.6050199294895418
30
0
10
-20.448528809141774
20
3.3417187357753999
30
0
0
SPLINE
5
176
100
AcDbEntity
8
0
100
AcDbSpline
70
0
71
2
72
6
73
3
74
0
42
0.000000001
43
0.0000000001
44
0.0000000001
40
0
40
0
40
0
40
1
40
1
40
1
10
-20.448528809141774
20
3.3417187357753999
30
0
10
-20.448528809141774
20
4.0825099969715364
30
0
10
-20.621448291134495
20
4.3260298395962007
30
0
0
SPLINE
5
177
100
AcDbEntity
8
0
100
AcDbSpline
70
0
71
2
72
6
73
3
74
0
42
0.000000001
43
0.0000000001
44
0.0000000001
40
0
40
0
40
0
40
1
40
1
40
1
10
-20.621448291134495
20
4.3260298395962007
30
0
10
-20.794367922138829
20
4.569549682220865
30
0
10
-21.052212400030751
20
4.569549682220865
30
0
0
SPLINE
5
178
100
AcDbEntity
8
0
100
AcDbSpline
70
0
71
2
72
6
73
3
74
0
42
0.000000001
43
0.0000000001
44
0.0000000001
40
0
40
0
40
0
40
1
40
1
40
1
10
-21.052212400030751
20
4.569549682220865
30
0
10
-21.30596412498917
20
4.569549682220865
30
0
10
-21.4573965795752
20
4.3546791101307161
30
0
0
SPLINE
5
179
100
AcDbEntity
8
0
100
AcDbSpline
70
0
71
2
72
6
73
3
74
0
42
0.000000001
43
0.0000000001
44
0.0000000001
40
0
40
0
40
0
40
1
40
1
40
1
10
-21.4573965795752
20
4.3546791101307161
30
0
10
-21.647710336041111
20
4.0804636205047853
30
0
10
-21.647710336041111
20
3.3417187357754004
30
0
0
LINE
5
180
100
AcDbEntity
8
0
100
AcDbLine
10
21.162547531842257
20
1.8621824408382674
30
0
11
20.79419827771094
21
1.8621824408382674
31
0
0
LINE
5
181
100
AcDbEntity
8
0
100
AcDbLine
10
20.79419827771094
20
1.8621824408382674
30
0
11
20.794198277710993
21
4.2093857849449412
31
0
0
SPLINE
5
182
100
AcDbEntity
8
0
100
AcDbSpline
70
0
71
2
72
6
73
3
74
0
42
0.000000001
43
0.0000000001
44
0.0000000001
40
0
40
0
40
0
40
1
40
1
40
1
10
20.794198277710993
20
4.2093857849449412
30
0
10
20.661183062314109
20
4.0825098479599253
30
0
10
20.445289674519607
20
3.9556340599865214
30
0
0
SPLINE
5
183
100
AcDbEntity
8
0
100
AcDbSpline
70
0
71
2
72
6
73
3
74
0
42
0.000000001
43
0.0000000001
44
0.0000000001
40
0
40
0
40
0
40
1
40
1
40
1
10
20.445289674519607
20
3.9556340599865214
30
0
10
20.229395988701889
20
3.8287581230015055
30
0
10
20.057499769448349
20
3.7653203035206095
30
0
0
LINE
5
184
100
AcDbEntity
8
0
100
AcDbLine
10
20.057499769448349
20
3.7653203035206095
30
0
11
20.057499769448359
21
4.1213911498398081
31
0
0
SPLINE
5
185
100
AcDbEntity
8
0
100
AcDbSpline
70
0
71
2
72
6
73
3
74
0
42
0.000000001
43
0.0000000001
44
0.0000000001
40
0
40
0
40
0
40
1
40
1
40
1
10
20.057499769448356
20
4.1213911498398081
30
0
10
20.366503659009059
20
4.2666844750255839
30
0
10
20.59774524283322
20
4.4733695412487284
30
0
0
SPLINE
5
186
100
AcDbEntity
8
0
100
AcDbSpline
70
0
71
2
72
6
73
3
74
0
42
0.000000001
43
0.0000000001
44
0.0000000001
40
0
40
0
40
0
40
1
40
1
40
1
10
20.59774524283322
20
4.4733695412487284
30
0
10
20.828986826657385
20
4.6800543094486491
30
0
10
20.925166669606302
20
4.8744608188480631
30
0
0
LINE
5
187
100
AcDbEntity
8
0
100
AcDbLine
10
20.925166669606302
20
4.8744608188480631
30
0
11
21.162547531842325
21
4.8744608188480631
31
0
0
LINE
5
188
100
AcDbEntity
8
0
100
AcDbLine
10
21.162547531842325
20
4.8744608188480631
30
0
11
21.162547531842257
21
1.8621824408382674
31
0
0
LINE
5
189
100
AcDbEntity
8
0
100
AcDbLine
10
24.041810694455179
20
2.2162069106907163
30
0
11
24.041810694455172
21
1.8621824408382688
31
0
0
LINE
5
190
100
AcDbEntity
8
0
100
AcDbLine
10
24.041810694455172
20
1.8621824408382688
30
0
11
22.058863702534701
21
1.8621824408382681
31
0
0
SPLINE
5
191
100
AcDbEntity
8
0
100
AcDbSpline
70
0
71
2
72
6
73
3
74
0
42
0.000000001
43
0.0000000001
44
0.0000000001
40
0
40
0
40
0
40
1
40
1
40
1
10
22.058863702534701
20
1.8621824408382681
30
0
10
22.054771247624426
20
1.9951973582119253
30
0
10
22.101838055371317
20
2.1179805422634388
30
0
0
SPLINE
5
192
100
AcDbEntity
8
0
100
AcDbSpline
70
0
71
2
72
6
73
3
74
0
42
0.000000001
43
0.0000000001
44
0.0000000001
40
0
40
0
40
0
40
1
40
1
40
1
10
22.101838055371317
20
2.1179805422634388
30
0
10
22.17755413365272
20
2.3205725575298572
30
0
10
22.344334486245195
20
2.5170255924076343
30
0
0
SPLINE
5
193
100
AcDbEntity
8
0
100
AcDbSpline
70
0
71
2
72
6
73
3
74
0
42
0.000000001
43
0.0000000001
44
0.0000000001
40
0
40
0
40
0
40
1
40
1
40
1
10
22.344334486245195
20
2.5170255924076343
30
0
10
22.511114838837667
20
2.7134783292621876
30
0
10
22.826258006810242
20
2.9713229561657215
30
0
0
SPLINE
5
194
100
AcDbEntity
8
0
100
AcDbSpline
70
0
71
2
72
6
73
3
74
0
42
0.000000001
43
0.0000000001
44
0.0000000001
40
0
40
0
40
0
40
1
40
1
40
1
10
22.826258006810242
20
2.9713229561657215
30
0
10
23.315343919514717
20
3.3724142337650562
30
0
10
23.487240138768261
20
3.6067254567951466
30
0
0
SPLINE
5
195
100
AcDbEntity
8
0
100
AcDbSpline
70
0
71
2
72
6
73
3
74
0
42
0.000000001
43
0.0000000001
44
0.0000000001
40
0
40
0
40
0
40
1
40
1
40
1
10
23.487240138768261
20
3.6067254567951466
30
0
10
23.659136358021804
20
3.8410365308136249
30
0
10
23.659136358021811
20
4.0497678244919086
30
0
0
SPLINE
5
196
100
AcDbEntity
8
0
100
AcDbSpline
70
0
71
2
72
6
73
3
74
0
42
0.000000001
43
0.0000000001
44
0.0000000001
40
0
40
0
40
0
40
1
40
1
40
1
10
23.659136358021811
20
4.0497678244919086
30
0
10
23.659136358021815
20
4.2687308514923359
30
0
10
23.502588334797942
20
4.4191403413624073
30
0
0
SPLINE
5
197
100
AcDbEntity
8
0
100
AcDbSpline
70
0
71
2
72
6
73
3
74
0
42
0.000000001
43
0.0000000001
44
0.0000000001
40
0
40
0
40
0
40
1
40
1
40
1
10
23.502588334797942
20
4.4191403413624073
30
0
10
23.346040311574072
20
4.5695493841976429
30
0
10
23.094334665059179
20
4.5695493841976429
30
0
0
SPLINE
5
198
100
AcDbEntity
8
0
100
AcDbSpline
70
0
71
2
72
6
73
3
74
0
42
0.000000001
43
0.0000000001
44
0.0000000001
40
0
40
0
40
0
40
1
40
1
40
1
10
23.094334665059179
20
4.5695493841976429
30
0
10
22.828304830311865
20
4.5695493841976429
30
0
10
22.6686865718356
20
4.4099314237446094
30
0
0
SPLINE
5
199
100
AcDbEntity
8
0
100
AcDbSpline
70
0
71
2
72
6
73
3
74
0
42
0.000000001
43
0.0000000001
44
0.0000000001
40
0
40
0
40
0
40
1
40
1
40
1
10
22.6686865718356
20
4.4099314237446094
30
0
10
22.509068611382563
20
4.250313463291576
30
0
10
22.507022085904197
20
3.9679123187870289
30
0
0
LINE
5
200
100
AcDbEntity
8
0
100
AcDbLine
10
22.507022085904197
20
3.9679123187870289
30
0
11
22.128441098450736
21
4.0067936206669117
31
0
0
SPLINE
5
201
100
AcDbEntity
8
0
100
AcDbSpline
70
0
71
2
72
6
73
3
74
0
42
0.000000001
43
0.0000000001
44
0.0000000001
40
0
40
0
40
0
40
1
40
1
40
1
10
22.128441098450736
20
4.0067936206669117
30
0
10
22.167322400330626
20
4.4303951884121204
30
0
10
22.421073976277441
20
4.6524281526417042
30
0
0
SPLINE
5
202
100
AcDbEntity
8
0
100
AcDbSpline
70
0
71
2
72
6
73
3
74
0
42
0.000000001
43
0.0000000001
44
0.0000000001
40
0
40
0
40
0
40
1
40
1
40
1
10
22.421073976277441
20
4.6524281526417042
30
0
10
22.674825552224252
20
4.874460818848064
30
0
10
23.102520170926187
20
4.874460818848064
30
0
0
SPLINE
5
203
100
AcDbEntity
8
0
100
AcDbSpline
70
0
71
2
72
6
73
3
74
0
42
0.000000001
43
0.0000000001
44
0.0000000001
40
0
40
0
40
0
40
1
40
1
40
1
10
23.102520170926187
20
4.874460818848064
30
0
10
23.534307542561624
20
4.874460818848064
30
0
10
23.786012593030065
20
4.6350337291569019
30
0
0
SPLINE
5
204
100
AcDbEntity
8
0
100
AcDbSpline
70
0
71
2
72
6
73
3
74
0
42
0.000000001
43
0.0000000001
44
0.0000000001
40
0
40
0
40
0
40
1
40
1
40
1
10
23.786012593030065
20
4.6350337291569019
30
0
10
24.037717643498503
20
4.3956066394657398
30
0
10
24.037717643498496
20
4.0415821696132923
30
0
0
SPLINE
5
205
100
AcDbEntity
8
0
100
AcDbSpline
70
0
71
2
72
6
73
3
74
0
42
0.000000001
43
0.0000000001
44
0.0000000001
40
0
40
0
40
0
40
1
40
1
40
1
10
24.037717643498496
20
4.0415821696132923
30
0
10
24.037717643498489
20
3.8615002954811359
30
0
10
23.964048090695446
20
3.6875576997608448
30
0
0
SPLINE
5
206
100
AcDbEntity
8
0
100
AcDbSpline
70
0
71
2
72
6
73
3
74
0
42
0.000000001
43
0.0000000001
44
0.0000000001
40
0
40
0
40
0
40
1
40
1
40
1
10
23.964048090695446
20
3.6875576997608448
30
0
10
23.890378537892403
20
3.5136149550289417
30
0
10
23.719505134343208
20
3.3212549711078907
30
0
0
SPLINE
5
207
100
AcDbEntity
8
0
100
AcDbSpline
70
0
71
2
72
6
73
3
74
0
42
0.000000001
43
0.0000000001
44
0.0000000001
40
0
40
0
40
0
40
1
40
1
40
1
10
23.719505134343208
20
3.3212549711078907
30
0
10
23.548631730794007
20
3.1288946891636158
30
0
10
23.151633802174615
20
2.7932874585003162
30
0
0
SPLINE
5
208
100
AcDbEntity
8
0
100
AcDbSpline
70
0
71
2
72
6
73
3
74
0
42
0.000000001
43
0.0000000001
44
0.0000000001
40
0
40
0
40
0
40
1
40
1
40
1
10
23.151633802174615
20
2.7932874585003162
30
0
10
22.820118728398366
20
2.5149793649524952
30
0
10
22.725985410927812
20
2.4157295847744251
30
0
0
SPLINE
5
209
100
AcDbEntity
8
0
100
AcDbSpline
70
0
71
2
72
6
73
3
74
0
42
0.000000001
43
0.0000000001
44
0.0000000001
40
0
40
0
40
0
40
1
40
1
40
1
10
22.725985410927812
20
2.4157295847744251
30
0
10
22.631851497410807
20
2.3164798045963551
30
0
10
22.570460203408274
20
2.2162069106907154
30
0
0
LINE
5
210
100
AcDbEntity
8
0
100
AcDbLine
10
22.570460203408274
20
2.2162069106907154
30
0
11
24.041810694455179
21
2.2162069106907163
31
0
0
LINE
5
211
100
AcDbEntity
8
0
100
AcDbLine
10
-14.867026020824365
20
18.335148629245815
30
0
11
-14.545510281660007
21
18.521484138446816
31
0
0
SPLINE
5
212
100
AcDbEntity
8
0
100
AcDbSpline
70
0
71
2
72
6
73
3
74
0
42
0.000000001
43
0.0000000001
44
0.0000000001
40
0
40
0
40
0
40
1
40
1
40
1
10
-14.545510281660011
20
18.521484138446816
30
0
10
-14.367084738516303
20
18.256496635617477
30
0
10
-14.173373618623744
20
18.187222493915666
30
0
0
SPLINE
5
213
100
AcDbEntity
8
0
100
AcDbSpline
70
0
71
2
72
6
73
3
74
0
42
0.000000001
43
0.0000000001
44
0.0000000001
40
0
40
0
40
0
40
1
40
1
40
1
10
-14.173373618623744
20
18.187222493915666
30
0
10
-13.97966266002074
20
18.117947962827969
30
0
10
-13.777367083453701
20
18.201741201783143
30
0
0
SPLINE
5
214
100
AcDbEntity
8
0
100
AcDbSpline
70
0
71
2
72
6
73
3
74
0
42
0.000000001
43
0.0000000001
44
0.0000000001
40
0
40
0
40
0
40
1
40
1
40
1
10
-13.777367083453701
20
18.201741201783143
30
0
10
-13.53725882757146
20
18.301196903196281
30
0
10
-13.44074447988784
20
18.53609323777907
30
0
0
SPLINE
5
215
100
AcDbEntity
8
0
100
AcDbSpline
70
0
71
2
72
6
73
3
74
0
42
0.000000001
43
0.0000000001
44
0.0000000001
40
0
40
0
40
0
40
1
40
1
40
1
10
-13.44074447988784
20
18.53609323777907
30
0
10
-13.344229695576949
20
18.770990075795904
30
0
10
-13.446034561072043
20
19.01676973796755
30
0
0
SPLINE
5
216
100
AcDbEntity
8
0
100
AcDbSpline
70
0
71
2
72
6
73
3
74
0
42
0.000000001
43
0.0000000001
44
0.0000000001
40
0
40
0
40
0
40
1
40
1
40
1
10
-13.446034561072043
20
19.01676973796755
30
0
10
-13.543140870306809
20
19.251206036884987
30
0
10
-13.759321486580166
20
19.339968277553737
30
0
0
SPLINE
5
217
100
AcDbEntity
8
0
100
AcDbSpline
70
0
71
2
72
6
73
3
74
0
42
0.000000001
43
0.0000000001
44
0.0000000001
40
0
40
0
40
0
40
1
40
1
40
1
10
-13.759321486580166
20
19.339968277553737
30
0
10
-13.975501988805361
20
19.428730242884768
30
0
10
-14.211828756485907
20
19.330840878955954
30
0
0
SPLINE
5
218
100
AcDbEntity
8
0
100
AcDbSpline
70
0
71
2
72
6
73
3
74
0
42
0.000000001
43
0.0000000001
44
0.0000000001
40
0
40
0
40
0
40
1
40
1
40
1
10
-14.211828756485907
20
19.330840878955954
30
0
10
-14.308249822186168
20
19.290902124309696
30
0
10
-14.436274113282918
20
19.193573001661658
30
0
0
LINE
5
219
100
AcDbEntity
8
0
100
AcDbLine
10
-14.436274113282918
20
19.193573001661658
30
0
11
-14.522194206340854
21
19.507952428966053
31
0
0
SPLINE
5
220
100
AcDbEntity
8
0
100
AcDbSpline
70
0
71
2
72
6
73
3
74
0
42
0.000000001
43
0.0000000001
44
0.0000000001
40
0
40
0
40
0
40
1
40
1
40
1
10
-14.522194206340853
20
19.507952428966053
30
0
10
-14.486596791791184
20
19.518267341075717
30
0
10
-14.465800258708171
20
19.526881512950535
30
0
0
SPLINE
5
221
100
AcDbEntity
8
0
100
AcDbSpline
70
0
71
2
72
6
73
3
74
0
42
0.000000001
43
0.0000000001
44
0.0000000001
40
0
40
0
40
0
40
1
40
1
40
1
10
-14.465800258708171
20
19.526881512950535
30
0
10
-14.248379555347508
20
19.616939759698528
30
0
10
-14.121430030062207
20
19.802422927115412
30
0
0
SPLINE
5
222
100
AcDbEntity
8
0
100
AcDbSpline
70
0
71
2
72
6
73
3
74
0
42
0.000000001
43
0.0000000001
44
0.0000000001
40
0
40
0
40
0
40
1
40
1
40
1
10
-14.121430030062207
20
19.802422927115412
30
0
10
-13.994480343487353
20
19.987906483918181
30
0
10
-14.092369707416118
20
20.224233251598744
30
0
0
SPLINE
5
223
100
AcDbEntity
8
0
100
AcDbSpline
70
0
71
2
72
6
73
3
74
0
42
0.000000001
43
0.0000000001
44
0.0000000001
40
0
40
0
40
0
40
1
40
1
40
1
10
-14.092369707416118
20
20.224233251598744
30
0
10
-14.169898109650683
20
20.411404114378755
30
0
10
-14.347471529323936
20
20.481825151611986
30
0
0
SPLINE
5
224
100
AcDbEntity
8
0
100
AcDbSpline
70
0
71
2
72
6
73
3
74
0
42
0.000000001
43
0.0000000001
44
0.0000000001
40
0
40
0
40
0
40
1
40
1
40
1
10
-14.347471529323936
20
20.481825151611986
30
0
10
-14.525045395407155
20
20.552246487803632
30
0
10
-14.725450503211064
20
20.469236303542459
30
0
0
SPLINE
5
225
100
AcDbEntity
8
0
100
AcDbSpline
70
0
71
2
72
6
73
3
74
0
42
0.000000001
43
0.0000000001
44
0.0000000001
40
0
40
0
40
0
40
1
40
1
40
1
10
-14.725450503211064
20
20.469236303542459
30
0
10
-14.923964866914128
20
20.387009288023449
30
0
10
-15.004622266339034
20
20.207410664474715
30
0
0
SPLINE
5
226
100
AcDbEntity
8
0
100
AcDbSpline
70
0
71
2
72
6
73
3
74
0
42
0.000000001
43
0.0000000001
44
0.0000000001
40
0
40
0
40
0
40
1
40
1
40
1
10
-15.004622266339034
20
20.207410664474715
30
0
10
-15.08527972278802
20
20.027812178594839
30
0
10
-15.019720843141309
20
19.762588874504637
30
0
0
LINE
5
227
100
AcDbEntity
8
0
100
AcDbLine
10
-15.019720843141309
20
19.762588874504637
30
0
11
-15.385090952566395
21
19.682127600832704
31
0
0
SPLINE
5
228
100
AcDbEntity
8
0
100
AcDbSpline
70
0
71
2
72
6
73
3
74
0
42
0.000000001
43
0.0000000001
44
0.0000000001
40
0
40
0
40
0
40
1
40
1
40
1
10
-15.385090952566394
20
19.682127600832704
30
0
10
-15.464444513210722
20
20.050171680124926
30
0
10
-15.321162607212422
20
20.329912052777711
30
0
0
SPLINE
5
229
100
AcDbEntity
8
0
100
AcDbSpline
70
0
71
2
72
6
73
3
74
0
42
0.000000001
43
0.0000000001
44
0.0000000001
40
0
40
0
40
0
40
1
40
1
40
1
10
-15.321162607212422
20
20.329912052777711
30
0
10
-15.177880815262288
20
20.609652700768216
30
0
10
-14.848913919407741
20
20.745914709955287
30
0
0
SPLINE
5
230
100
AcDbEntity
8
0
100
AcDbSpline
70
0
71
2
72
6
73
3
74
0
42
0.000000001
43
0.0000000001
44
0.0000000001
40
0
40
0
40
0
40
1
40
1
40
1
10
-14.848913919407741
20
20.745914709955287
30
0
10
-14.622040046218277
20
20.839888572317768
30
0
10
-14.390757712201763
20
20.8216165655449
30
0
0
SPLINE
5
231
100
AcDbEntity
8
0
100
AcDbSpline
70
0
71
2
72
6
73
3
74
0
42
0.000000001
43
0.0000000001
44
0.0000000001
40
0
40
0
40
0
40
1
40
1
40
1
10
-14.390757712201763
20
20.8216165655449
30
0
10
-14.159475264137084
20
20.803344283434313
30
0
10
-13.988629972486182
20
20.676976356168801
30
0
0
SPLINE
5
232
100
AcDbEntity
8
0
100
AcDbSpline
70
0
71
2
72
6
73
3
74
0
42
0.000000001
43
0.0000000001
44
0.0000000001
40
0
40
0
40
0
40
1
40
1
40
1
10
-13.988629972486182
20
20.676976356168801
30
0
10
-13.817785345558878
20
20.550608476144674
30
0
10
-13.739473831606233
20
20.361547006932682
30
0
0
SPLINE
5
233
100
AcDbEntity
8
0
100
AcDbSpline
70
0
71
2
72
6
73
3
74
0
42
0.000000001
43
0.0000000001
44
0.0000000001
40
0
40
0
40
0
40
1
40
1
40
1
10
-13.739473831606233
20
20.361547006932682
30
0
10
-13.665077933268076
20
20.181938707549488
30
0
10
-13.70041605686165
20
19.994532100532695
30
0
0
SPLINE
5
234
100
AcDbEntity
8
0
100
AcDbSpline
70
0
71
2
72
6
73
3
74
0
42
0.000000001
43
0.0000000001
44
0.0000000001
40
0
40
0
40
0
40
1
40
1
40
1
10
-13.70041605686165
20
19.994532100532695
30
0
10
-13.735754455792941
20
19.807125379467742
30
0
10
-13.888792671925007
20
19.641845694305871
30
0
0
SPLINE
5
235
100
AcDbEntity
8
0
100
AcDbSpline
70
0
71
2
72
6
73
3
74
0
42
0.000000001
43
0.0000000001
44
0.0000000001
40
0
40
0
40
0
40
1
40
1
40
1
10
-13.888792671925007
20
19.641845694305871
30
0
10
-13.619519544162769
20
19.686932091503643
30
0
10
-13.409390845344857
20
19.564653022962521
30
0
0
SPLINE
5
236
100
AcDbEntity
8
0
100
AcDbSpline
70
0
71
2
72
6
73
3
74
0
42
0.000000001
43
0.0000000001
44
0.0000000001
40
0
40
0
40
0
40
1
40
1
40
1
10
-13.409390845344857
20
19.564653022962521
30
0
10
-13.199262374623276
20
19.442374505096829
30
0
10
-13.088059940414878
20
19.173907015065886
30
0
0
SPLINE
5
237
100
AcDbEntity
8
0
100
AcDbSpline
70
0
71
2
72
6
73
3
74
0
42
0.000000001
43
0.0000000001
44
0.0000000001
40
0
40
0
40
0
40
1
40
1
40
1
10
-13.088059940414878
20
19.173907015065886
30
0
10
-12.937701920302406
20
18.810909203435521
30
0
10
-13.0978418617735
20
18.448876367241525
30
0
0
SPLINE
5
238
100
AcDbEntity
8
0
100
AcDbSpline
70
0
71
2
72
6
73
3
74
0
42
0.000000001
43
0.0000000001
44
0.0000000001
40
0
40
0
40
0
40
1
40
1
40
1
10
-13.0978418617735
20
18.448876367241525
30
0
10
-13.257981964534146
20
18.08684314166165
30
0
10
-13.662573393005943
20
17.919256549703139
30
0
0
SPLINE
5
239
100
AcDbEntity
8
0
100
AcDbSpline
70
0
71
2
72
6
73
3
74
0
42
0.000000001
43
0.0000000001
44
0.0000000001
40
0
40
0
40
0
40
1
40
1
40
1
10
-13.662573393005943
20
17.919256549703139
30
0
10
-14.027461948737127
20
17.76811536084843
30
0
10
-14.358573410411164
20
17.885688949497137
30
0
0
SPLINE
5
240
100
AcDbEntity
8
0
100
AcDbSpline
70
0
71
2
72
6
73
3
74
0
42
0.000000001
43
0.0000000001
44
0.0000000001
40
0
40
0
40
0
40
1
40
1
40
1
10
-14.358573410411164
20
17.885688949497137
30
0
10
-14.689685009754058
20
18.003262481121759
30
0
10
-14.867026020824365
20
18.335148629245815
30
0
0
LINE
5
241
100
AcDbEntity
8
0
100
AcDbLine
10
14.063252529523457
20
18.976612023518737
30
0
11
14.402858224418223
21
18.871382097404318
31
0
0
SPLINE
5
242
100
AcDbEntity
8
0
100
AcDbSpline
70
0
71
2
72
6
73
3
74
0
42
0.000000001
43
0.0000000001
44
0.0000000001
40
0
40
0
40
0
40
1
40
1
40
1
10
14.402858224418221
20
18.871382097404318
30
0
10
14.348911293912799
20
18.623498840109036
30
0
10
14.423057498269266
20
18.47096186060217
30
0
0
SPLINE
5
243
100
AcDbEntity
8
0
100
AcDbSpline
70
0
71
2
72
6
73
3
74
0
42
0.000000001
43
0.0000000001
44
0.0000000001
40
0
40
0
40
0
40
1
40
1
40
1
10
14.423057498269266
20
18.47096186060217
30
0
10
14.497203977963185
20
18.318424767046501
30
0
10
14.680593313822072
20
18.242462219432909
30
0
0
SPLINE
5
244
100
AcDbEntity
8
0
100
AcDbSpline
70
0
71
2
72
6
73
3
74
0
42
0.000000001
43
0.0000000001
44
0.0000000001
40
0
40
0
40
0
40
1
40
1
40
1
10
14.680593313822072
20
18.242462219432909
30
0
10
14.837514185091131
20
18.177463297333563
30
0
10
14.98543598143778
20
18.200361591640931
30
0
0
SPLINE
5
245
100
AcDbEntity
8
0
100
AcDbSpline
70
0
71
2
72
6
73
3
74
0
42
0.000000001
43
0.0000000001
44
0.0000000001
40
0
40
0
40
0
40
1
40
1
40
1
10
14.98543598143778
20
18.200361591640931
30
0
10
15.133357777784431
20
18.223259885948295
30
0
10
15.258710367141834
20
18.311989140043533
30
0
0
SPLINE
5
246
100
AcDbEntity
8
0
100
AcDbSpline
70
0
71
2
72
6
73
3
74
0
42
0.000000001
43
0.0000000001
44
0.0000000001
40
0
40
0
40
0
40
1
40
1
40
1
10
15.258710367141834
20
18.311989140043533
30
0
10
15.384062842450435
20
18.400718118801315
30
0
10
15.519686186512288
20
18.583760051133648
30
0
0
SPLINE
5
247
100
AcDbEntity
8
0
100
AcDbSpline
70
0
71
2
72
6
73
3
74
0
42
0.000000001
43
0.0000000001
44
0.0000000001
40
0
40
0
40
0
40
1
40
1
40
1
10
15.519686186512288
20
18.583760051133648
30
0
10
15.655309805911594
20
18.766801869417179
30
0
10
15.743019266220038
20
18.978550687485953
30
0
0
SPLINE
5
248
100
AcDbEntity
8
0
100
AcDbSpline
70
0
71
2
72
6
73
3
74
0
42
0.000000001
43
0.0000000001
44
0.0000000001
40
0
40
0
40
0
40
1
40
1
40
1
10
15.743019266220038
20
18.978550687485953
30
0
10
15.752416659517884
20
19.0012379428487
30
0
10
15.769320703831291
20
19.047395626706756
30
0
0
SPLINE
5
249
100
AcDbEntity
8
0
100
AcDbSpline
70
0
71
2
72
6
73
3
74
0
42
0.000000001
43
0.0000000001
44
0.0000000001
40
0
40
0
40
0
40
1
40
1
40
1
10
15.769320703831291
20
19.047395626706756
30
0
10
15.599879565962794
20
18.927091463154984
30
0
10
15.381210560738495
20
18.899165384880419
30
0
0
SPLINE
5
250
100
AcDbEntity
8
0
100
AcDbSpline
70
0
71
2
72
6
73
3
74
0
42
0.000000001
43
0.0000000001
44
0.0000000001
40
0
40
0
40
0
40
1
40
1
40
1
10
15.381210560738495
20
18.899165384880419
30
0
10
15.162541166127937
20
18.871239145317212
30
0
10
14.956464574906335
20
18.956599086228735
30
0
0
SPLINE
5
251
100
AcDbEntity
8
0
100
AcDbSpline
70
0
71
2
72
6
73
3
74
0
42
0.000000001
43
0.0000000001
44
0.0000000001
40
0
40
0
40
0
40
1
40
1
40
1
10
14.956464574906335
20
18.956599086228735
30
0
10
14.612373158551272
20
19.099126788157996
30
0
10
14.477527658364505
20
19.447360784321475
30
0
0
SPLINE
5
252
100
AcDbEntity
8
0
100
AcDbSpline
70
0
71
2
72
6
73
3
74
0
42
0.000000001
43
0.0000000001
44
0.0000000001
40
0
40
0
40
0
40
1
40
1
40
1
10
14.477527658364505
20
19.447360784321475
30
0
10
14.342682158177736
20
19.795594780484954
30
0
10
14.511835921831786
20
20.203967029039099
30
0
0
SPLINE
5
253
100
AcDbEntity
8
0
100
AcDbSpline
70
0
71
2
72
6
73
3
74
0
42
0.000000001
43
0.0000000001
44
0.0000000001
40
0
40
0
40
0
40
1
40
1
40
1
10
14.511835921831786
20
20.203967029039099
30
0
10
14.686471555267316
20
20.625573647556909
30
0
10
15.041591364989875
20
20.779716448083182
30
0
0
SPLINE
5
254
100
AcDbEntity
8
0
100
AcDbSpline
70
0
71
2
72
6
73
3
74
0
42
0.000000001
43
0.0000000001
44
0.0000000001
40
0
40
0
40
0
40
1
40
1
40
1
10
15.041591364989875
20
20.779716448083182
30
0
10
15.396711013423786
20
20.933859637995702
30
0
10
15.771052378933256
20
20.778801964287069
30
0
0
SPLINE
5
255
100
AcDbEntity
8
0
100
AcDbSpline
70
0
71
2
72
6
73
3
74
0
42
0.000000001
43
0.0000000001
44
0.0000000001
40
0
40
0
40
0
40
1
40
1
40
1
10
15.771052378933256
20
20.778801964287069
30
0
10
16.041409802353325
20
20.666815961649281
30
0
10
16.205147370174505
20
20.42843930689876
30
0
0
SPLINE
5
256
100
AcDbEntity
8
0
100
AcDbSpline
70
0
71
2
72
6
73
3
74
0
42
0.000000001
43
0.0000000001
44
0.0000000001
40
0
40
0
40
0
40
1
40
1
40
1
10
16.205147370174505
20
20.42843930689876
30
0
10
16.368884548609429
20
20.190062490859589
30
0
10
16.373562821733259
20
19.872488265981115
30
0
0
SPLINE
5
257
100
AcDbEntity
8
0
100
AcDbSpline
70
0
71
2
72
6
73
3
74
0
42
0.000000001
43
0.0000000001
44
0.0000000001
40
0
40
0
40
0
40
1
40
1
40
1
10
16.373562821733259
20
19.872488265981115
30
0
10
16.378241208905891
20
19.554914316440094
30
0
10
16.166798947313929
20
19.044448868078682
30
0
0
SPLINE
5
258
100
AcDbEntity
8
0
100
AcDbSpline
70
0
71
2
72
6
73
3
74
0
42
0.000000001
43
0.0000000001
44
0.0000000001
40
0
40
0
40
0
40
1
40
1
40
1
10
16.166798947313929
20
19.044448868078682
30
0
10
15.94674235150787
20
18.513186631299362
30
0
10
15.701025522046489
20
18.246170298345621
30
0
0
SPLINE
5
259
100
AcDbEntity
8
0
100
AcDbSpline
70
0
71
2
72
6
73
3
74
0
42
0.000000001
43
0.0000000001
44
0.0000000001
40
0
40
0
40
0
40
1
40
1
40
1
10
15.701025522046489
20
18.246170298345621
30
0
10
15.455308853873762
20
17.979153576005626
30
0
10
15.15935857889302
20
17.909036204998458
30
0
0
SPLINE
5
260
100
AcDbEntity
8
0
100
AcDbSpline
70
0
71
2
72
6
73
3
74
0
42
0.000000001
43
0.0000000001
44
0.0000000001
40
0
40
0
40
0
40
1
40
1
40
1
10
15.15935857889302
20
17.909036204998458
30
0
10
14.863408579249731
20
17.838918719942491
30
0
10
14.557129255165853
20
17.965784099708536
30
0
0
SPLINE
5
261
100
AcDbEntity
8
0
100
AcDbSpline
70
0
71
2
72
6
73
3
74
0
42
0.000000001
43
0.0000000001
44
0.0000000001
40
0
40
0
40
0
40
1
40
1
40
1
10
14.557129255165853
20
17.965784099708536
30
0
10
14.23194388494638
20
18.100480640556192
30
0
10
14.100655138663281
20
18.366393941572174
30
0
0
SPLINE
5
262
100
AcDbEntity
8
0
100
AcDbSpline
70
0
71
2
72
6
73
3
74
0
42
0.000000001
43
0.0000000001
44
0.0000000001
40
0
40
0
40
0
40
1
40
1
40
1
10
14.100655138663281
20
18.366393941572174
30
0
10
13.969366231091531
20
18.632307631974406
30
0
10
14.063252529523457
20
18.976612023518737
30
0
0
SPLINE
5
263
100
AcDbEntity
8
0
100
AcDbSpline
70
0
71
2
72
6
73
3
74
0
42
0.000000001
43
0.0000000001
44
0.0000000001
40
0
40
0
40
0
40
1
40
1
40
1
10
15.96331189196407
20
19.622679117183996
30
0
10
16.084695458971932
20
19.915724208973398
30
0
10
15.999983615114896
20
20.15237717203993
30
0
0
SPLINE
5
264
100
AcDbEntity
8
0
100
AcDbSpline
70
0
71
2
72
6
73
3
74
0
42
0.000000001
43
0.0000000001
44
0.0000000001
40
0
40
0
40
0
40
1
40
1
40
1
10
15.999983615114896
20
20.15237717203993
30
0
10
15.915271942331069
20
20.389030548112636
30
0
10
15.695961256483278
20
20.479872244756884
30
0
0
SPLINE
5
265
100
AcDbEntity
8
0
100
AcDbSpline
70
0
71
2
72
6
73
3
74
0
42
0.000000001
43
0.0000000001
44
0.0000000001
40
0
40
0
40
0
40
1
40
1
40
1
10
15.695961256483278
20
20.479872244756884
30
0
10
15.469087601506345
20
20.573846633931375
30
0
10
15.224077381810446
20
20.458264174538236
30
0
0
SPLINE
5
266
100
AcDbEntity
8
0
100
AcDbSpline
70
0
71
2
72
6
73
3
74
0
42
0.000000001
43
0.0000000001
44
0.0000000001
40
0
40
0
40
0
40
1
40
1
40
1
10
15.224077381810446
20
20.458264174538236
30
0
10
14.979067162114546
20
20.34268171514509
30
0
10
14.856900478998529
20
20.047746018742131
30
0
0
SPLINE
5
267
100
AcDbEntity
8
0
100
AcDbSpline
70
0
71
2
72
6
73
3
74
0
42
0.000000001
43
0.0000000001
44
0.0000000001
40
0
40
0
40
0
40
1
40
1
40
1
10
14.856900478998529
20
20.047746018742131
30
0
10
14.74726388171058
20
19.783060546831067
30
0
10
14.838497812661071
20
19.551458398861318
30
0
0
SPLINE
5
268
100
AcDbEntity
8
0
100
AcDbSpline
70
0
71
2
72
6
73
3
74
0
42
0.000000001
43
0.0000000001
44
0.0000000001
40
0
40
0
40
0
40
1
40
1
40
1
10
14.838497812661071
20
19.551458398861318
30
0
10
14.929731354225307
20
19.319856089602926
30
0
10
15.164167152319024
20
19.222749350044591
30
0
0
SPLINE
5
269
100
AcDbEntity
8
0
100
AcDbSpline
70
0
71
2
72
6
73
3
74
0
42
0.000000001
43
0.0000000001
44
0.0000000001
40
0
40
0
40
0
40
1
40
1
40
1
10
15.164167152319024
20
19.222749350044591
30
0
10
15.400493692695026
20
19.124859437353692
30
0
10
15.621211151386621
20
19.227247075545961
30
0
0
SPLINE
5
270
100
AcDbEntity
8
0
100
AcDbSpline
70
0
71
2
72
6
73
3
74
0
42
0.000000001
43
0.0000000001
44
0.0000000001
40
0
40
0
40
0
40
1
40
1
40
1
10
15.621211151386621
20
19.227247075545961
30
0
10
15.841928496029411
20
19.329634438400774
30
0
10
15.96331189196407
20
19.622679117183996
30
0
0
ENDSEC
0
SECTION
2
OBJECTS
0
DICTIONARY
5
C
100
AcDbDictionary
3
ACAD_GROUP
350
D
3
ACAD_MLINESTYLE
350
17
0
DICTIONARY
5
D
100
AcDbDictionary
0
DICTIONARY
5
1A
330
C
100
AcDbDictionary
0
DICTIONARY
5
17
100
AcDbDictionary
0
ENDSEC
0
EOF
